# xmcd
#
# Track frame offsets:
#	150
#	8137
#	19355
#	30560
#	45532
#	56862
#	71822
#	83195
#	93362
#	105870
#	118562
#	134000
#	146212
#	158932
#	178157
#	194542
#	205137
#	217512
#
# Disc length: 3017 seconds
#
# Revision: 12
# Processed by: cddbd v1.5.2PL0 Copyright (c) Steve Scherf et al.
# Submitted via: audiograbber 1.83.01
#
DISCID=010bc712
DTITLE=Various Artist - Country and Western Favourites, Disc 1
DYEAR=1998
DGENRE=Country
TTITLE0=George Jones - Jambalaya
TTITLE1=Waylon Jennings - Sally Was A Good Old Girl
TTITLE2=Conway Twitty - Have I Been Away Too Long
TTITLE3=Billie JO Spears - Crystal Chandaliers
TTITLE4=Johnny Cash - Mean Eyed Cat
TTITLE5=Willie Nelson - Face Of A Fighter
TTITLE6=Don Williams - Follow Me Back To Louisville
TTITLE7=Faron Young - Hello Walls
TTITLE8=Bobby Helms - Fraulein
TTITLE9=Freddy Fender - Silver Wings
TTITLE10=Ray Pillow - How Do I Hide From A Memory
TTITLE11=Gene Simmons - Catahoula Cur Dog
TTITLE12=Johnny Paycheck - Georgia In A Jug
TTITLE13=Dave Travis - Sweet Country Music
TTITLE14=Rex Allen Jr - Memory Train
TTITLE15=Carl Perkins - What Am I Living For
TTITLE16=Ray Price - Rain And Tears
TTITLE17=Guy Mitchell - Singing The Blues
EXTD=
EXTT0=
EXTT1=
EXTT2=
EXTT3=
EXTT4=
EXTT5=
EXTT6=
EXTT7=
EXTT8=
EXTT9=
EXTT10=
EXTT11=
EXTT12=
EXTT13=
EXTT14=
EXTT15=
EXTT16=
EXTT17=
PLAYORDER=
